HIERARCHY
ROOT hip
{
  OFFSET 0 0 0
  CHANNELS 6 Xposition Yposition Zposition Zrotation Yrotation Xrotation
  JOINT abdomen
  {
    OFFSET 0 20.6881 -0.73152
    CHANNELS 3 Zrotation Xrotation Yrotation
    JOINT chest
    {
      OFFSET 0 11.7043 -0.48768
      CHANNELS 3 Zrotation Xrotation Yrotation
      JOINT neck
      {
        OFFSET 0 22.1894 -2.19456
        CHANNELS 3 Zrotation Xrotation Yrotation
        JOINT head
        {
          OFFSET -0.24384 7.07133 1.2192
          CHANNELS 3 Zrotation Xrotation Yrotation
          JOINT leftEye
          {
            OFFSET 4.14528 8.04674 8.04672
            CHANNELS 3 Zrotation Xrotation Yrotation
            End Site
            {
              OFFSET 1 0 0
            }
          }
          JOINT rightEye
          {
            OFFSET -3.6576 8.04674 8.04672
            CHANNELS 3 Zrotation Xrotation Yrotation
            End Site
            {
              OFFSET 1 0 0
            }
          }
        }
      }
      JOINT rCollar
      {
        OFFSET -2.68224 19.2634 -4.8768
        CHANNELS 3 Zrotation Xrotation Yrotation
        JOINT rShldr
        {
          OFFSET -8.77824 -1.95073 1.46304
          CHANNELS 3 Zrotation Xrotation Yrotation
          JOINT rForeArm
          {
            OFFSET -28.1742 -1.7115 0.48768
            CHANNELS 3 Zrotation Xrotation Yrotation
            JOINT rHand
            {
              OFFSET -22.5879 0.773209 7.07136
              CHANNELS 3 Zrotation Xrotation Yrotation
              JOINT rThumb1
              {
                OFFSET -1.2192 -0.487915 3.41376
                CHANNELS 3 Zrotation Xrotation Yrotation
                JOINT rThumb2
                {
                  OFFSET -3.37035 -0.52449 3.41376
                  CHANNELS 3 Zrotation Xrotation Yrotation
                  End Site
                  {
                    OFFSET -1.78271 -1.18214 1.43049
                  }
                }
              }
              JOINT rIndex1
              {
                OFFSET -7.75947 0.938293 5.60832
                CHANNELS 3 Zrotation Xrotation Yrotation
                JOINT rIndex2
                {
                  OFFSET -2.54057 -0.884171 1.56538
                  CHANNELS 3 Zrotation Xrotation Yrotation
                  End Site
                  {
                    OFFSET -1.62519 -0.234802 1.16502
                  }
                }
              }
              JOINT rMid1
              {
                OFFSET -8.24714 1.18213 3.41376
                CHANNELS 3 Zrotation Xrotation Yrotation
                JOINT rMid2
                {
                  OFFSET -3.10165 -0.590103 1.0647
                  CHANNELS 3 Zrotation Xrotation Yrotation
                  End Site
                  {
                    OFFSET -2.48547 -0.328903 0.83742
                  }
                }
              }
              JOINT rRing1
              {
                OFFSET -8.82822 0.546677 1.51678
                CHANNELS 3 Zrotation Xrotation Yrotation
                JOINT rRing2
                {
                  OFFSET -2.60934 -0.819778 -0.0198488
                  CHANNELS 3 Zrotation Xrotation Yrotation
                  End Site
                  {
                    OFFSET -2.33842 -0.294052 0.168128
                  }
                }
              }
              JOINT rPinky1
              {
                OFFSET -8.27202 -0.0477905 -0.4584
                CHANNELS 3 Zrotation Xrotation Yrotation
                JOINT rPinky2
                {
                  OFFSET -1.82734 -0.647385 -0.700984
                  CHANNELS 3 Zrotation Xrotation Yrotation
                  End Site
                  {
                    OFFSET -1.69225 -0.51767 -0.607171
                  }
                }
              }
            }
          }
        }
      }
      JOINT lCollar
      {
        OFFSET 2.68224 19.2634 -4.8768
        CHANNELS 3 Zrotation Xrotation Yrotation
        JOINT lShldr
        {
          OFFSET 8.77824 -1.95073 1.46304
          CHANNELS 3 Zrotation Xrotation Yrotation
          JOINT lForeArm
          {
            OFFSET 28.1742 -1.7115 0.48768
            CHANNELS 3 Zrotation Xrotation Yrotation
            JOINT lHand
            {
              OFFSET 22.5879 0.773209 7.07136
              CHANNELS 3 Zrotation Xrotation Yrotation
              JOINT lThumb1
              {
                OFFSET 1.2192 -0.487915 3.41376
                CHANNELS 3 Zrotation Xrotation Yrotation
                JOINT lThumb2
                {
                  OFFSET 3.37035 -0.52449 3.41376
                  CHANNELS 3 Zrotation Xrotation Yrotation
                  End Site
                  {
                    OFFSET 1.78271 -1.18214 1.43049
                  }
                }
              }
              JOINT lIndex1
              {
                OFFSET 7.75947 0.938293 5.60832
                CHANNELS 3 Zrotation Xrotation Yrotation
                JOINT lIndex2
                {
                  OFFSET 2.54057 -0.884171 1.56538
                  CHANNELS 3 Zrotation Xrotation Yrotation
                  End Site
                  {
                    OFFSET 1.62519 -0.234802 1.16502
                  }
                }
              }
              JOINT lMid1
              {
                OFFSET 8.24714 1.18213 3.41376
                CHANNELS 3 Zrotation Xrotation Yrotation
                JOINT lMid2
                {
                  OFFSET 3.10165 -0.590103 1.0647
                  CHANNELS 3 Zrotation Xrotation Yrotation
                  End Site
                  {
                    OFFSET 2.48547 -0.328903 0.83742
                  }
                }
              }
              JOINT lRing1
              {
                OFFSET 8.82822 0.546677 1.51678
                CHANNELS 3 Zrotation Xrotation Yrotation
                JOINT lRing2
                {
                  OFFSET 2.60934 -0.819778 -0.0198488
                  CHANNELS 3 Zrotation Xrotation Yrotation
                  End Site
                  {
                    OFFSET 2.33842 -0.294052 0.168128
                  }
                }
              }
              JOINT lPinky1
              {
                OFFSET 8.27202 -0.0477905 -0.4584
                CHANNELS 3 Zrotation Xrotation Yrotation
                JOINT lPinky2
                {
                  OFFSET 1.82734 -0.647385 -0.700984
                  CHANNELS 3 Zrotation Xrotation Yrotation
                  End Site
                  {
                    OFFSET 1.69225 -0.51767 -0.607171
                  }
                }
              }
            }
          }
        }
      }
    }
  }
  JOINT rButtock
  {
    OFFSET -8.77824 4.35084 1.2192
    CHANNELS 3 Zrotation Xrotation Yrotation
    JOINT rThigh
    {
      OFFSET 0 -1.70687 -2.19456
      CHANNELS 3 Zrotation Xrotation Yrotation
      JOINT rShin
      {
        OFFSET 0 -36.8199 0.73152
        CHANNELS 3 Zrotation Xrotation Yrotation
        JOINT rFoot
        {
          OFFSET 0.73152 -45.1104 -5.12064
          CHANNELS 3 Zrotation Xrotation Yrotation
          End Site
          {
            OFFSET -1.1221 -3.69964 12.103
          }
        }
      }
    }
  }
  JOINT lButtock
  {
    OFFSET 8.77824 4.35084 1.2192
    CHANNELS 3 Zrotation Xrotation Yrotation
    JOINT lThigh
    {
      OFFSET 0 -1.70687 -2.19456
      CHANNELS 3 Zrotation Xrotation Yrotation
      JOINT lShin
      {
        OFFSET 0 -36.8199 0.73152
        CHANNELS 3 Zrotation Xrotation Yrotation
        JOINT lFoot
        {
          OFFSET -0.73152 -45.1104 -5.12064
          CHANNELS 3 Zrotation Xrotation Yrotation
          End Site
          {
            OFFSET 1.1221 -3.69964 12.103
          }
        }
      }
    }
  }
}
MOTION
Frames:	4
Frame Time:	0.03333
0.3468686490390117 33.64075803982048 1.6098395154354512 -12.860698699951172 -6.020900249481201 -6.089200019836426 5.101049900054932 29.145597457885742 12.205398559570312 0.36323606967926025 -9.262870788574219 3.677989959716797 -6.640599727630615 15.411499977111816 -6.645959854125977 9.88839054107666 -26.286998748779297 -10.746800422668457 -0.0 0.0 -0.0 -0.0 0.0 -0.0 2.353610470580414e-13 -6.361109013662547e-15 -1.1449996224592585e-13 54.440494537353516 36.81879806518555 11.143900871276855 -21.442699432373047 -14.9399995803833 42.31800079345703 -0.16841697692871094 11.688199996948242 1.6655899286270142 -1.6952482750909326e-09 2.2709159205880347e-11 8.258627809398789e-11 -2.92591928463537e-09 1.7111382840176437e-12 1.5720208468295027e-10 -1.6952482750909326e-09 2.2715520436866754e-11 8.257355910146202e-11 7.7309088706970215 5.474880218505859 0.41731396317481995 -1.6952482750909326e-09 2.2709159205880347e-11 8.258627809398789e-11 2.9055399894714355 0.9651829600334167 0.10290198773145676 -1.6952482750909326e-09 2.270279797489394e-11 8.258627809398789e-11 10.27859878540039 0.73180091381073 0.025912299752235413 -1.6952610426557158e-09 2.2715520436866754e-11 8.258627809398789e-11 2.2216696739196777 -0.7334870100021362 -0.2089199721813202 2.353610470580414e-13 -6.361109013662547e-15 -1.1449996224592585e-13 -62.385498046875 46.201698303222656 -15.49839973449707 18.637798309326172 -11.410199165344238 -35.404502868652344 0.023600202053785324 4.41349983215332 -0.6180449724197388 -1.4711590834437516e-09 -3.802619996662315e-09 -1.627521561964329e-09 -2.5542397086297797e-09 -6.572857813580413e-09 -2.801311627109726e-09 -1.4711718510085348e-09 -3.802619996662315e-09 -1.6275087943995459e-09 -7.7309088706970215 5.474880218505859 -0.41731396317481995 -1.4711590834437516e-09 -3.802619996662315e-09 -1.627521561964329e-09 -2.9055399894714355 0.9651829600334167 -0.10290198773145676 -1.4711718510085348e-09 -3.802619996662315e-09 -1.627521561964329e-09 -10.27859878540039 0.73180091381073 -0.025912299752235413 -1.4711527551725112e-09 -3.802619996662315e-09 -1.6275278902355694e-09 -2.2216696739196777 -0.7334870100021362 0.2089199721813202 -0.0 0.0 -0.0 -1.907979965209961 -24.706398010253906 -16.286300659179688 -3.039219856262207 76.95939636230469 4.7245001792907715 -14.926498413085938 -27.240299224853516 -26.775798797607422 -0.0 0.0 -0.0 27.63119888305664 -66.85609436035156 19.80299949645996 1.9787801504135132 67.2771987915039 -1.408979892730713 0.2596829831600189 11.614099502563477 -0.9089939594268799
0.5865368920852915 34.05300093736577 3.1936667890254378 -10.633999824523926 -14.103498458862305 -7.144499778747559 1.0548394918441772 28.26729965209961 16.68899917602539 -1.0943701267242432 -7.988189220428467 4.487298965454102 -6.409329414367676 15.545999526977539 -5.3027191162109375 9.501558303833008 -24.441997528076172 -8.317519187927246 -0.0 0.0 -0.0 -0.0 0.0 -0.0 1.2722218027325094e-14 1.3358328928691349e-13 -4.261942903628635e-13 55.31289291381836 39.70249938964844 12.730399131774902 -21.75369644165039 -15.391801834106445 43.128997802734375 -0.21636198461055756 13.134199142456055 1.8792498111724854 -2.6226851246313743e-10 -3.740478593527996e-09 1.1888212636534945e-09 -4.3922185333222785e-10 -6.484381032123565e-09 2.0573924786049247e-09 -2.6226851246313743e-10 -3.740491028025872e-09 1.1888212636534945e-09 7.7309088706970215 5.474880218505859 0.41731396317481995 -2.6226851246313743e-10 -3.740471932189848e-09 1.1888212636534945e-09 2.9055399894714355 0.9651829600334167 0.10290198773145676 -2.6226215643632145e-10 -3.740491028025872e-09 1.1888212636534945e-09 10.27859878540039 0.73180091381073 0.025912299752235413 -2.6226851246313743e-10 -3.740471932189848e-09 1.1888212636534945e-09 2.2216696739196777 -0.7334870100021362 -0.2089199721813202 1.2722218027325094e-14 1.3358328928691349e-13 -4.261942903628635e-13 -67.9823989868164 44.785099029541016 -6.063030242919922 19.558298110961914 -12.46619987487793 -37.618202209472656 0.0023835294414311647 -1.393899917602539 0.19593897461891174 -3.377367274737253e-10 -3.5562416900170035e-10 -5.915831713387831e-11 -5.866087615657989e-10 -6.171357314066483e-10 -1.0217849483185049e-10 -3.377430835005413e-10 -3.5562416900170035e-10 -5.913922823674866e-11 -7.7309088706970215 5.474880218505859 -0.41731396317481995 -3.377367274737253e-10 -3.5562416900170035e-10 -5.915195416816843e-11 -2.9055399894714355 0.9651829600334167 -0.10290198773145676 -3.377430835005413e-10 -3.5562416900170035e-10 -5.915195416816843e-11 -10.27859878540039 0.73180091381073 -0.025912299752235413 -3.377239876645177e-10 -3.5562416900170035e-10 -5.915831713387831e-11 -2.2216696739196777 -0.7334870100021362 0.2089199721813202 -0.0 0.0 -0.0 -4.203739643096924 -22.229900360107422 -11.95829963684082 -2.8645095825195312 76.09510803222656 4.4055705070495605 -13.890998840332031 -27.7565975189209 -25.010900497436523 -0.0 0.0 -0.0 32.53599548339844 -59.83779525756836 20.856199264526367 1.0657298564910889 56.495994567871094 -0.4178199768066406 -0.4661789536476135 20.75769805908203 0.6997019648551941
0.7784204513472877 34.44032047462969 4.844873878777601 -8.65630054473877 -21.990798950195312 -8.361299514770508 -1.632569432258606 26.99479866027832 20.70240020751953 -2.5371100902557373 -6.936960220336914 5.312029838562012 -5.9928297996521 15.225199699401855 -3.795809507369995 9.122749328613281 -21.63709831237793 -5.598630428314209 -0.0 0.0 -0.0 -0.0 0.0 -0.0 1.1449996224592585e-13 2.162777064645266e-13 -3.880276633859425e-13 55.40559768676758 43.493499755859375 14.531298637390137 -22.155799865722656 -15.992598533630371 44.215797424316406 -0.2122090458869934 12.984000205993652 1.8571897745132446 -1.7014185615948918e-09 -3.1887030793598115e-09 1.1992725701404083e-09 -2.9274522805877723e-09 -5.5697424450329436e-09 2.0891091079278112e-09 -1.7014185615948918e-09 -3.1887030793598115e-09 1.1992599135979276e-09 7.7309088706970215 5.474880218505859 0.41731396317481995 -1.7014185615948918e-09 -3.1886904228173307e-09 1.1992725701404083e-09 2.9055399894714355 0.9651829600334167 0.10290198773145676 -1.7014185615948918e-09 -3.1887095186533543e-09 1.1992725701404083e-09 10.27859878540039 0.73180091381073 0.025912299752235413 -1.7014185615948918e-09 -3.1887030793598115e-09 1.1992790094339512e-09 2.2216696739196777 -0.7334870100021362 -0.2089199721813202 1.1449996224592585e-13 2.162777064645266e-13 -3.880276633859425e-13 -73.62339782714844 41.88140106201172 2.7822301387786865 19.954397201538086 -12.940799713134766 -38.61069869995117 0.06218269094824791 -9.043599128723145 1.2742899656295776 -1.618240652589975e-09 -7.270429813743817e-10 2.113033220618732e-10 -2.795026876611928e-09 -1.2598685428244494e-09 3.460824959944375e-10 -1.6182470918835179e-09 -7.270429813743817e-10 2.1132240402010893e-10 -7.7309088706970215 5.474880218505859 -0.41731396317481995 -1.618240652589975e-09 -7.270429813743817e-10 2.113033220618732e-10 -2.9055399894714355 0.9651829600334167 -0.10290198773145676 -1.618240652589975e-09 -7.270429813743817e-10 2.113033220618732e-10 -10.27859878540039 0.73180091381073 -0.025912299752235413 -1.6182279960474943e-09 -7.270429813743817e-10 2.113033220618732e-10 -2.2216696739196777 -0.7334870100021362 0.2089199721813202 -0.0 0.0 -0.0 -6.103349685668945 -20.256200790405273 -7.405479431152344 -2.6366395950317383 75.09269714355469 4.1067399978637695 -13.369498252868652 -27.629398345947266 -24.305500030517578 -0.0 0.0 -0.0 35.645301818847656 -51.34239196777344 20.480600357055664 0.6621639728546143 47.373199462890625 0.028819197788834572 -2.244919776916504 26.652400970458984 4.303340435028076
0.9701321353021228 34.64973748967686 6.473964815997261 -7.117799282073975 -29.277198791503906 -9.540399551391602 -2.8829193115234375 25.521900177001953 23.516101837158203 -3.68388032913208 -6.069889545440674 5.94379997253418 -5.449219703674316 14.699700355529785 -2.269929885864258 8.347088813781738 -18.85270118713379 -2.9213199615478516 -0.0 0.0 -0.0 -0.0 0.0 -0.0 2.417221425191768e-13 2.417221425191768e-13 -3.3077766871045244e-13 54.67230224609375 47.414493560791016 16.49959945678711 -22.61880111694336 -16.71540069580078 45.49629592895508 -0.18587999045848846 12.192899703979492 1.740209937095642 -3.191228392651624e-09 -2.199509241407327e-09 1.0147495066448187e-09 -5.505190081578348e-09 -3.899849776445308e-09 1.7846027988710489e-09 -3.191228392651624e-09 -2.199509241407327e-09 1.014736850102338e-09 7.7309088706970215 5.474880218505859 0.41731396317481995 -3.191228392651624e-09 -2.199509241407327e-09 1.014736850102338e-09 2.9055399894714355 0.9651829600334167 0.10290198773145676 -3.191218844733612e-09 -2.1995187893253387e-09 1.0147495066448187e-09 10.27859878540039 0.73180091381073 0.025912299752235413 -3.191228392651624e-09 -2.1995187893253387e-09 1.0147622742096019e-09 2.2216696739196777 -0.7334870100021362 -0.2089199721813202 2.417221425191768e-13 2.417221425191768e-13 -3.3077766871045244e-13 -78.39249420166016 38.35219955444336 10.044300079345703 19.940397262573242 -12.937000274658203 -38.535404205322266 0.3338959813117981 -16.218900680541992 2.342980146408081 -2.8659308259904037e-09 -1.5420695831380726e-09 8.835580704580348e-12 -4.945641229880948e-09 -2.665078824293232e-09 -1.8351799246918432e-11 -2.8659308259904037e-09 -1.5420600352200609e-09 8.848302299191424e-12 -7.7309088706970215 5.474880218505859 -0.41731396317481995 -2.865921278072392e-09 -1.5420695831380726e-09 8.835580704580348e-12 -2.9055399894714355 0.9651829600334167 -0.10290198773145676 -2.8659308259904037e-09 -1.5420695831380726e-09 8.835580704580348e-12 -10.27859878540039 0.73180091381073 -0.025912299752235413 -2.865921278072392e-09 -1.5420695831380726e-09 8.829219473593941e-12 -2.2216696739196777 -0.7334870100021362 0.2089199721813202 -0.0 0.0 -0.0 -7.880670070648193 -18.622900009155273 -3.5286998748779297 -2.4193899631500244 74.1167984008789 3.8844497203826904 -13.157600402832031 -27.083898544311523 -24.291900634765625 -0.0 0.0 -0.0 38.563995361328125 -43.342899322509766 20.97679901123047 0.4587119519710541 41.126304626464844 0.20435501635074615 -3.848860025405884 29.55449676513672 7.004239559173584
